<?xml version="1.0" standalone="no"?>
<!DOCTYPE svg PUBLIC "-//W3C//DTD SVG 20010904//EN"
 "http://www.w3.org/TR/2001/REC-SVG-20010904/DTD/svg10.dtd">
<svg version="1.0" xmlns="http://www.w3.org/2000/svg"
 width="300.000000pt" height="300.000000pt" viewBox="0 0 300.000000 300.000000"
 preserveAspectRatio="xMidYMid meet">
<metadata>
Created by potrace 1.10, written by Peter Selinger 2001-2011
</metadata>
<g transform="translate(0.000000,300.000000) scale(0.100000,-0.100000)"
fill="#000000" stroke="none">
<path d="M1301 2250 c-141 -37 -255 -104 -352 -207 -153 -160 -216 -331 -206
-552 8 -183 66 -330 182 -459 50 -56 60 -61 69 -36 8 20 -46 84 -84 100 -26
12 -38 33 -58 109 -6 22 -20 65 -31 96 -106 293 15 643 281 812 239 152 536
152 766 0 51 -34 53 -35 67 -17 12 17 11 21 -8 36 -46 36 -185 99 -261 118
-105 27 -263 26 -365 0z"/>
<path d="M1433 2139 c-98 -62 -234 -330 -294 -579 l-23 -95 -79 -74 c-90 -86
-137 -158 -137 -214 0 -74 79 -73 141 2 31 38 82 159 94 223 6 33 16 43 65 73
64 39 203 105 208 100 2 -2 -5 -95 -17 -207 -37 -376 -38 -463 -2 -456 12 3
15 13 13 49 -3 43 44 600 53 627 3 7 23 12 51 12 59 0 56 24 -4 28 -23 2 -42
7 -42 13 0 5 16 98 35 206 19 108 35 215 35 236 0 76 -34 96 -97 56z m63 -33
c3 -13 -10 -109 -30 -213 -19 -103 -38 -209 -41 -234 -7 -44 -9 -47 -48 -58
-23 -7 -81 -35 -129 -62 -49 -27 -90 -49 -92 -49 -10 0 70 255 105 336 48 109
125 229 174 273 43 37 53 38 61 7z m-423 -797 c-27 -72 -94 -159 -122 -159
-22 0 -24 31 -5 73 20 45 146 185 152 169 1 -5 -10 -43 -25 -83z"/>
<path d="M1985 2097 c-98 -103 -187 -290 -246 -516 l-29 -113 -84 -82 c-119
-115 -162 -209 -117 -250 29 -26 73 -12 116 35 40 45 64 93 95 199 19 65 25
73 68 101 55 35 212 113 216 108 2 -2 -5 -76 -15 -164 -10 -88 -21 -214 -25
-280 -6 -114 -5 -121 15 -139 l21 -19 0 49 c0 50 40 539 46 562 2 7 21 12 49
12 33 0 45 4 45 15 0 11 -12 15 -45 15 -42 0 -45 2 -40 23 21 97 65 383 65
428 0 61 -11 79 -49 79 -18 0 -43 -18 -86 -63z m105 -11 c0 -24 -11 -97 -24
-162 -13 -66 -29 -153 -35 -194 -17 -110 -20 -120 -34 -120 -17 0 -172 -75
-209 -101 -16 -12 -32 -19 -34 -16 -3 3 7 50 22 104 57 205 148 392 235 484
58 63 79 64 79 5z m-413 -750 c-33 -89 -73 -153 -107 -171 -16 -8 -31 -15 -35
-15 -11 0 -4 53 11 86 17 36 130 164 145 164 5 0 -2 -29 -14 -64z"/>
<path d="M2006 2024 c-4 -9 1 -29 11 -43 l17 -26 7 28 c4 16 5 35 2 43 -7 19
-29 18 -37 -2z"/>
<path d="M2127 1854 c-4 -23 0 -50 13 -78 39 -92 57 -243 41 -346 -16 -101
-51 -198 -101 -278 -23 -36 -44 -82 -47 -102 l-4 -35 31 35 c49 55 106 158
136 245 32 96 43 254 25 361 -12 68 -65 219 -80 229 -5 2 -11 -11 -14 -31z"/>
<path d="M1897 987 l-28 -22 29 -34 c28 -34 28 -34 55 -16 15 9 24 21 21 27
-3 5 -14 2 -25 -8 -25 -23 -37 -10 -14 16 19 21 8 29 -13 8 -20 -20 -26 1 -7
22 26 29 14 33 -18 7z"/>
<path d="M1033 984 c-3 -9 -1 -25 5 -34 17 -27 0 -34 -20 -8 -14 19 -18 20
-18 6 0 -9 10 -24 22 -32 20 -14 24 -14 37 -1 12 12 13 18 3 27 -7 7 -12 19
-12 27 0 11 4 10 20 -4 18 -16 20 -16 20 -2 0 9 -9 21 -19 27 -26 14 -31 13
-38 -6z"/>
<path d="M1175 864 c-40 -35 -40 -35 -11 -29 24 5 34 2 48 -17 18 -23 18 -23
18 30 0 28 -3 52 -7 52 -5 0 -26 -16 -48 -36z"/>
<path d="M1733 893 c3 -5 12 -25 20 -46 15 -35 17 -36 41 -25 32 14 34 30 3
23 -18 -5 -24 0 -34 25 -6 16 -16 30 -23 30 -6 0 -9 -3 -7 -7z"/>
<path d="M1360 848 c0 -7 -3 -31 -7 -52 -4 -28 -3 -37 5 -32 7 4 12 19 13 34
l0 27 12 -25 c6 -14 12 -27 14 -29 1 -2 11 7 22 20 l19 24 -5 -28 c-3 -16 -1
-27 6 -27 6 0 11 13 11 29 0 16 3 36 6 45 4 11 1 16 -10 16 -9 0 -16 -4 -16
-8 0 -5 -7 -17 -14 -28 -14 -18 -15 -18 -26 14 -12 32 -30 44 -30 20z"/>
<path d="M1574 854 c-7 -3 -10 -13 -9 -22 12 -60 17 -72 26 -72 6 0 9 6 6 14
-3 8 5 18 19 25 34 15 30 55 -6 58 -14 1 -30 0 -36 -3z"/>
</g>
</svg>
